<svg viewBox="0 0 24 24" fill="none"
	xmlns="http://www.w3.org/2000/svg">
	<path d="M19.3238 9.46747C19.3238 9.46747 18.7808 16.2025 18.4658 19.0395C18.3158 20.3945 17.4788 21.1885 16.1078 21.2135C13.4988 21.2605 10.8868 21.2635 8.27881 21.2085C6.95981 21.1815 6.13681 20.3775 5.98981 19.0465C5.67281 16.1845 5.13281 9.46747 5.13281 9.46747" stroke="currentColor" stroke-width="1.5" stroke-linecap="round" stroke-linejoin="round"/>
	<path d="M20.708 6.23898H3.75" stroke="currentColor" stroke-width="1.5" stroke-linecap="round" stroke-linejoin="round"/>
	<path d="M17.4406 6.23934C16.6556 6.23934 15.9796 5.68434 15.8256 4.91534L15.5826 3.69934C15.4326 3.13834 14.9246 2.75034 14.3456 2.75034H10.1126C9.53358 2.75034 9.02558 3.13834 8.87558 3.69934L8.63258 4.91534C8.47858 5.68434 7.80258 6.23934 7.01758 6.23934" stroke="currentColor" stroke-width="1.5" stroke-linecap="round" stroke-linejoin="round"/>
</svg>
